<svg id="Icons" height="512" viewBox="0 0 74 74" width="512" xmlns="http://www.w3.org/2000/svg"><path d="m43.99 67.484h-13.974a3.446 3.446 0 0 1 -3.395-3.641v-1.067a23.931 23.931 0 0 0 -5.292-15.214 20.223 20.223 0 0 1 -4.553-14.38 20.467 20.467 0 0 1 17.917-18.633 20.276 20.276 0 0 1 18.377 32.512 26 26 0 0 0 -5.691 15.909v1.13a3.393 3.393 0 0 1 -3.389 3.384zm-6.965-51.064a19.055 19.055 0 0 0 -2.112.117 18.44 18.44 0 0 0 -16.142 16.791 18.229 18.229 0 0 0 4.1 12.964 25.934 25.934 0 0 1 5.747 16.484v1.067a1.466 1.466 0 0 0 1.395 1.641h13.977a1.39 1.39 0 0 0 1.389-1.384v-1.13a27.985 27.985 0 0 1 6.107-17.131 18.074 18.074 0 0 0 3.793-11.139 18.3 18.3 0 0 0 -6.09-13.621 18.065 18.065 0 0 0 -12.164-4.659z"/><path d="m47.358 57.063h-20.613a1 1 0 0 1 0-2h20.613a1 1 0 0 1 0 2z"/><path d="m46.441 62.274h-18.862a1 1 0 0 1 0-2h18.862a1 1 0 0 1 0 2z"/><path d="m37 72a5.522 5.522 0 0 1 -5.516-5.516 1 1 0 0 1 2 0 3.516 3.516 0 0 0 7.032 0 1 1 0 0 1 2 0 5.522 5.522 0 0 1 -5.516 5.516z"/><path d="m37 57.067a1 1 0 0 1 -1-1v-11.867a1 1 0 0 1 2 0v11.867a1 1 0 0 1 -1 1z"/><path d="m37 45.2a1 1 0 0 1 -.707-.293l-6.55-6.549a1 1 0 0 1 1.414-1.414l5.843 5.844 5.843-5.842a1 1 0 0 1 1.414 1.414l-6.55 6.549a1 1 0 0 1 -.707.291z"/><path d="m37 8.758a1 1 0 0 1 -1-1v-4.758a1 1 0 0 1 2 0v4.758a1 1 0 0 1 -1 1z"/><path d="m68.7 35.7h-4.758a1 1 0 1 1 0-2h4.758a1 1 0 0 1 0 2z"/><path d="m10.058 35.7h-4.758a1 1 0 1 1 0-2h4.758a1 1 0 0 1 0 2z"/><path d="m17.949 16.649a1 1 0 0 1 -.707-.293l-3.364-3.364a1 1 0 0 1 1.414-1.414l3.364 3.364a1 1 0 0 1 -.707 1.707z"/><path d="m56.051 16.649a1 1 0 0 1 -.707-1.707l3.364-3.364a1 1 0 0 1 1.414 1.414l-3.364 3.364a1 1 0 0 1 -.707.293z"/></svg>