<?xml version="1.0" encoding="iso-8859-1"?>
<!-- Generator: Adobe Illustrator 19.0.0, SVG Export Plug-In . SVG Version: 6.00 Build 0)  -->
<svg  fill= "#fff" version="1.1" id="Capa_1" xmlns="http://www.w3.org/2000/svg" xmlns:xlink="http://www.w3.org/1999/xlink" x="0px" y="0px"
	 viewBox="0 0 512 512" style="enable-background:new 0 0 512 512;" xml:space="preserve">
<g>
	<g>
		<path d="M192.269,42.871c-3.602-4.186-9.913-4.663-14.103-1.062l-0.292,0.253c-4.188,3.602-4.662,9.915-1.062,14.103
			c1.979,2.3,4.774,3.48,7.587,3.48c2.308,0,4.628-0.795,6.516-2.418l0.292-0.253C195.395,53.372,195.869,47.059,192.269,42.871z"/>
	</g>
</g>
<g>
	<g>
		<path d="M504.518,271.367L454,258.226v-10.242c0-16.38-11.03-30.853-26.825-35.195c-11.074-3.044-22.665-0.798-31.801,6.165
			c-6.826,5.203-11.474,12.427-13.389,20.539l-32.667-8.498c3.817-10.435,5.901-21.697,5.901-33.437V157.5h8.579h51.26
			c5.522,0,10-4.478,10-10c0-23.159-18.841-42-42-42h-11.733c-11.024-52.477-57.667-92-113.373-92h-3.906
			c-13.882,0-27.462,2.433-40.365,7.229c-5.177,1.925-7.813,7.681-5.889,12.857c1.925,5.178,7.685,7.813,12.857,5.889
			c10.666-3.965,21.902-5.976,33.396-5.976h3.906c52.85,0,95.846,42.996,95.846,95.846v8.154h-6h-2.579h-81.113
			c-0.049,0-0.097,0-0.146,0h-97.18H158.2v-8.154c0-17.581,4.799-34.77,13.878-49.706c2.869-4.72,1.368-10.871-3.351-13.739
			c-4.72-2.869-10.871-1.368-13.739,3.351C144.005,87.319,138.2,108.1,138.2,129.346V147.5c0,5.522,4.478,10,10,10h8.579v23.408
			L12.518,143.381c-2.996-0.782-6.186-0.127-8.634,1.767C1.434,147.041,0,149.963,0,153.059v126.455
			c0,4.554,3.076,8.531,7.482,9.678l132.994,34.596c-16.704,21.39-26.671,48.284-26.671,77.464V488.5c0,5.522,4.478,10,10,10
			c5.522,0,10-4.478,10-10v-87.248c0-58.499,47.592-106.091,106.091-106.091h14.487h3.232h9.066c16.801,0,32.849,3.273,47.552,9.204
			c14.079,22.475,21.527,48.285,21.527,74.861V397.5h-11.888v-6.969c0-37.426-30.447-67.873-67.873-67.873
			s-67.873,30.447-67.873,67.873V488.5c0,5.522,4.478,10,10,10c5.522,0,10-4.478,10-10v-97.969
			c0-26.397,21.476-47.873,47.873-47.873c26.397,0,47.873,21.476,47.873,47.873V488.5c0,5.522,4.478,10,10,10
			c5.522,0,10-4.478,10-10v-71h70.208c0.069,1.717,0.114,3.439,0.114,5.173V488.5c0,5.522,4.478,10,10,10c5.522,0,10-4.478,10-10
			v-65.827c0-5.449-0.306-10.827-0.885-16.124c-0.006-0.064-0.015-0.127-0.022-0.191c-0.451-4.08-1.069-8.109-1.847-12.083
			l88.042,22.903c0.831,0.217,1.677,0.322,2.518,0.322c2.19,0,4.347-0.721,6.116-2.089c2.449-1.894,3.884-4.815,3.884-7.911V281.045
			C512,276.492,508.924,272.514,504.518,271.367z M383.059,125.5c8.532,0,15.945,4.882,19.593,12h-28.853v-8.154
			c0-1.288-0.029-2.569-0.071-3.846H383.059z M407.498,234.859c4.131-3.146,9.371-4.162,14.375-2.786
			c7.141,1.963,12.127,8.506,12.127,15.91v5.04l-32.626-8.487C402.18,240.712,404.304,237.294,407.498,234.859z M20,165.993
			l83.521,21.726l-18.49,11.222c-8.668,5.261-18.882,6.903-28.764,4.627L20,195.211V165.993z M156.044,307.172L20,271.782v-56.048
			l31.774,7.322c4.403,1.016,8.848,1.517,13.267,1.517c10.62,0,21.079-2.899,30.365-8.534l34.066-20.676
			c0.33-0.2,0.639-0.419,0.937-0.65l26.461,6.883c0.288,7.034,1.318,13.881,3.024,20.458l-14.275-3.099
			c-5.396-1.176-10.722,2.253-11.894,7.651c-1.172,5.396,2.254,10.722,7.651,11.894l27.432,5.955
			c8.15,14.812,20.034,27.291,34.375,36.163C185.521,286.004,169.494,295.171,156.044,307.172z M216.504,265.252
			c-23.679-13.303-39.723-38.654-39.723-67.694V157.5h73.576l-6.174,19.56h-0.67c-18.748,0-34,15.252-34,34
			c0,15.025,9.796,27.805,23.337,32.288L216.504,265.252z M257.616,275.162h-3.232v-0.001c-6.419,0-12.654-0.798-18.623-2.274
			l23.767-31.847c2.263-3.031,2.62-7.081,0.924-10.463c-1.695-3.383-5.155-5.518-8.938-5.518h-8c-7.72,0-14-6.28-14-14
			c0-7.72,6.28-14,14-14h8c4.363,0,8.223-2.829,9.536-6.99l10.28-32.569h63.89v40.058
			C335.22,240.349,300.407,275.162,257.616,275.162z M325.315,287.33c-0.228-0.109-0.458-0.212-0.693-0.303
			c-5.362-2.299-10.887-4.286-16.552-5.945c13.068-7.925,24.133-18.83,32.255-31.761l43.423,11.296
			c-2.583,2.189-4.948,4.683-7.032,7.466l-21.476,28.663c-1.32,1.762-2.874,3.344-4.596,4.715
			C342.727,295.961,334.25,291.216,325.315,287.33z M355.761,397.5v-18.274c0-19.547-3.525-38.733-10.326-56.773
			c23.379,18.411,40.181,44.812,46.259,75.047H355.761z M492,320.813l-71.013-16.364c-5.38-1.243-10.749,2.117-11.989,7.499
			c-1.24,5.382,2.117,10.75,7.499,11.989l73.085,16.842c0.756,0.175,1.51,0.258,2.254,0.258c0.055,0,0.109-0.006,0.164-0.007v53.535
			l-85.287-22.185c-0.481-0.125-0.962-0.2-1.441-0.252c-8.176-22.347-21.616-42.177-38.805-57.992
			c1.728-1.675,3.338-3.472,4.781-5.399l21.476-28.663c6.119-8.172,16.499-11.97,26.452-9.676l19.034,4.386L492,288.776V320.813z"/>
	</g>
</g>
<g>
	<g>
		<path d="M313.069,180.43c-1.859-1.86-4.439-2.93-7.069-2.93s-5.21,1.069-7.07,2.93c-1.86,1.861-2.93,4.44-2.93,7.07
			s1.069,5.21,2.93,7.069c1.86,1.861,4.44,2.931,7.07,2.931s5.21-1.07,7.069-2.931c1.86-1.859,2.931-4.439,2.931-7.069
			S314.93,182.29,313.069,180.43z"/>
	</g>
</g>
<g>
	<g>
		<path d="M166.599,266.4c-1.859-1.86-4.439-2.93-7.069-2.93c-2.641,0-5.221,1.07-7.08,2.93c-1.86,1.86-2.931,4.44-2.931,7.07
			s1.07,5.21,2.931,7.07c1.869,1.859,4.439,2.93,7.08,2.93c2.63,0,5.199-1.07,7.069-2.93c1.86-1.86,2.92-4.44,2.92-7.07
			S168.459,268.26,166.599,266.4z"/>
	</g>
</g>
<g>
	<g>
		<path d="M127.408,255.808L76.76,244.136c-5.38-1.246-10.751,2.116-11.99,7.498c-1.24,5.382,2.117,10.75,7.498,11.99l50.648,11.672
			c0.756,0.175,1.511,0.258,2.255,0.258c4.553,0,8.67-3.13,9.735-7.756C136.146,262.416,132.789,257.048,127.408,255.808z"/>
	</g>
</g>
<g>
</g>
<g>
</g>
<g>
</g>
<g>
</g>
<g>
</g>
<g>
</g>
<g>
</g>
<g>
</g>
<g>
</g>
<g>
</g>
<g>
</g>
<g>
</g>
<g>
</g>
<g>
</g>
<g>
</g>
</svg>
