<svg id="Icons" height="512" viewBox="0 0 74 74" width="512" xmlns="http://www.w3.org/2000/svg"><path d="m25.371 70.65h-13.235a1.855 1.855 0 0 1 -1.853-1.85v-25.4a1 1 0 0 1 2 0v25.25h13.088a1 1 0 0 1 0 2z"/><path d="m51.815 70.65h-13.235a1 1 0 0 1 0-2h13.087v-25.257a1 1 0 0 1 2 0v25.407a1.854 1.854 0 0 1 -1.852 1.85z"/><path d="m57.33 47.555a4.592 4.592 0 0 1 -3.268-1.355l-22.086-22.086-22.088 22.086a4.62 4.62 0 1 1 -6.534-6.534l25.354-25.354a4.724 4.724 0 0 1 6.534 0l25.358 25.355a4.621 4.621 0 0 1 -3.267 7.888zm-25.354-25.855a1 1 0 0 1 .707.293l22.794 22.794a2.683 2.683 0 0 0 3.705 0 2.618 2.618 0 0 0 0-3.706l-25.354-25.355a2.827 2.827 0 0 0 -3.706 0l-25.354 25.355a2.621 2.621 0 1 0 3.706 3.706l22.8-22.794a1 1 0 0 1 .702-.293z"/><path d="m38.58 70.65a1 1 0 0 1 -1-1v-14.042h-11.209v14.042a1 1 0 0 1 -2 0v-15.042a1 1 0 0 1 1-1h13.209a1 1 0 0 1 1 1v15.042a1 1 0 0 1 -1 1z"/><path d="m10.67 34.763a1 1 0 0 1 -1-1v-16.652a1.855 1.855 0 0 1 1.852-1.853h6.818a1.855 1.855 0 0 1 1.852 1.853v8.139a1 1 0 0 1 -2 0v-7.992h-6.522v16.505a1 1 0 0 1 -1 1z"/><path d="m71 27.625a1 1 0 0 1 -1-1 22.65 22.65 0 0 0 -22.625-22.625 1 1 0 0 1 0-2 24.653 24.653 0 0 1 24.625 24.625 1 1 0 0 1 -1 1z"/><path d="m64.064 27.625a1 1 0 0 1 -1-1 15.707 15.707 0 0 0 -15.689-15.689 1 1 0 0 1 0-2 17.709 17.709 0 0 1 17.689 17.689 1 1 0 0 1 -1 1z"/><path d="m57.129 27.625a1 1 0 0 1 -1-1 8.763 8.763 0 0 0 -8.754-8.753 1 1 0 0 1 0-2 10.765 10.765 0 0 1 10.754 10.753 1 1 0 0 1 -1 1z"/></svg>